# xmcd
#
# Track frame offsets: 
#        150
#        9622
#        23547
#        40442
#        59477
#        76730
#        93782
#        110100
#        125140
#        144297
#        161625
#        173242
#        186060
#        196675
#        218187
#        230390
#        245455
#        261685
#        277710
#        287272
#        303252
#        321420
#
# Disc length: 4481 seconds
#
# Revision: 0
# Processed by: cddbd v1.5.1PL0 Copyright (c) Steve Scherf et al.
# Submitted via: ExactAudioCopy v0.95b2
#
DISCID=30117f16
DTITLE=Various Artist - To nejlepsi z ceske country 3  Sladke vzpominky
DYEAR=2005
DGENRE=Country
TTITLE0=Nada Urbankova a Jiri Grossmann - Drahy muj
TTITLE1=Karel Gott - Tady jsem
TTITLE2=Wabi Danek - Jody a Kid
TTITLE3=Poutnici - Pojdme se napit
TTITLE4=Pavel Bobek - Nedelni rano
TTITLE5=Kamelot a Vera Martinova - Cas rozchodu
TTITLE6=Rangers - Vysocina
TTITLE7=Mirek Hoffmann - Kam te zene proud
TTITLE8=Karel Cernoch - Uz z hor zni zvon
TTITLE9=Jiri Grossmann - Jako kote si prist
TTITLE10=Rangers - Neplac, mala
TTITLE11=Pavel Bobek - Oh, Ruby, nechtej mi lasku brat
TTITLE12=Grosaci - Usmej se, srdcova damo
TTITLE13=Druha trava - Tanecnice
TTITLE14=Vera Martinova - Dala jsem lasku rekam
TTITLE15=Greenhorns a Mirek Hoffmann - Zluta kytka
TTITLE16=Frantisek Nedved - Jako ptaci
TTITLE17=Waldemar Matuska - Pisnicka pro Zuzanu
TTITLE18=Pavel Bobek - Ma divka "N"
TTITLE19=Druha trava a Pavlina Jisova - Ja pisnicka
TTITLE20=Pavel Bobek - Lasko, mne ubyva sil
TTITLE21=Frantisek Nedved a Helena Marsalkova - Siroky proud
EXTD=
EXTT0=
EXTT1=
EXTT2=
EXTT3=
EXTT4=
EXTT5=
EXTT6=
EXTT7=
EXTT8=
EXTT9=
EXTT10=
EXTT11=
EXTT12=
EXTT13=
EXTT14=
EXTT15=
EXTT16=
EXTT17=
EXTT18=
EXTT19=
EXTT20=
EXTT21=
PLAYORDER=
